<svg xmlns="http://www.w3.org/2000/svg" xmlns:xlink="http://www.w3.org/1999/xlink" width="60" height="61"><defs><path id="a" d="M0 0h50.824v52.736H0z"/></defs><g fill="none" fill-rule="evenodd"><path fill="#006ADC" fill-rule="nonzero" d="M37.077.252c-1.58 0-3.187.231-4.775.717-8.566 2.617-13.374 11.638-10.74 20.15 2.147 6.931 8.566 11.386 15.503 11.386 1.58 0 3.188-.231 4.775-.717 8.565-2.617 13.375-11.637 10.74-20.148C50.435 4.707 44.015.252 37.078.252"/><g transform="translate(4.185 6.264)"><mask id="b" fill="#fff"><use xlink:href="#a"/></mask><path fill="#000638" d="M11.544 51.283h23.214V1.438H11.544v49.845zm23.931 1.438h-24.65a.72.72 0 01-.719-.72V.72a.72.72 0 01.719-.719h24.65a.72.72 0 01.72.719v51.283a.72.72 0 01-.72.719z" mask="url(#b)"/><path fill="#000638" d="M20.08 50.929h5.43v-8.721h-5.43v8.72zm6.292 1.725h-7.155a.863.863 0 01-.862-.862V41.345c0-.477.387-.862.862-.862h7.155a.86.86 0 01.86.862v10.447a.86.86 0 01-.86.862zm.226-17.187c.49 0 .884-.466.884-1.048v-4.888c0-.583-.393-1.048-.884-1.048-.49 0-.885.465-.885 1.048v4.888c-.05.582.394 1.048.885 1.048m-6.891 0c.492 0 .885-.466.885-1.048v-4.888c0-.583-.393-1.048-.885-1.048-.49 0-.884.465-.884 1.048v4.888c-.05.582.393 1.048.884 1.048m6.891-9.956c.49 0 .884-.466.884-1.047v-4.889c0-.582-.393-1.047-.884-1.047-.49 0-.885.465-.885 1.047v4.889c-.05.581.394 1.047.885 1.047m-6.891 0c.492 0 .885-.466.885-1.047v-4.889c0-.582-.393-1.047-.885-1.047-.49 0-.884.465-.884 1.047v4.889c-.05.581.393 1.047.884 1.047m6.891-10.73c.49 0 .884-.466.884-1.047V8.845c0-.582-.393-1.047-.884-1.047-.49 0-.885.465-.885 1.047v4.889c-.05.581.394 1.047.885 1.047m-6.891 0c.492 0 .885-.466.885-1.047V8.845c0-.582-.393-1.047-.885-1.047-.49 0-.884.465-.884 1.047v4.889c-.05.581.393 1.047.884 1.047m21.588 11.723h-.873c-.583 0-1.048.467-1.048 1.048 0 .582.465 1.047 1.048 1.047h.873c.582 0 1.047-.465 1.047-1.047 0-.581-.465-1.048-1.047-1.048m0-5.878h-.873c-.583 0-1.048.467-1.048 1.048 0 .582.465 1.047 1.048 1.047h.873c.582 0 1.047-.465 1.047-1.047 0-.524-.465-1.048-1.047-1.048m0 11.64h-.873c-.583 0-1.048.466-1.048 1.047 0 .583.465 1.048 1.048 1.048h.873c.582 0 1.047-.465 1.047-1.048 0-.58-.465-1.047-1.047-1.047M1.438 51.283h8.668V29.261H1.438v22.022zm9.387 1.438H.719A.719.719 0 010 52V28.543c0-.398.32-.719.719-.719h10.106c.397 0 .719.321.719.719v23.46a.72.72 0 01-.719.719z" mask="url(#b)"/><path fill="#000638" d="M6.209 39.25h-.873c-.583 0-1.048.466-1.048 1.047 0 .583.465 1.048 1.048 1.048h.873c.582 0 1.047-.465 1.047-1.048 0-.581-.465-1.047-1.047-1.047m0-5.878h-.873c-.583 0-1.048.466-1.048 1.047 0 .583.465 1.048 1.048 1.048h.873c.582 0 1.047-.465 1.047-1.048 0-.524-.465-1.047-1.047-1.047m0 11.639h-.873c-.583 0-1.048.467-1.048 1.048 0 .582.465 1.049 1.048 1.049h.873c.582 0 1.047-.467 1.047-1.05 0-.58-.465-1.047-1.047-1.047m39.295-7.417c-1.924 0-2.975 3.081-3.81 5.968-.249.86-.107 1.653.423 2.356.72.957 2.082 1.6 3.387 1.6 1.246 0 2.523-.592 3.25-1.511a2.828 2.828 0 00.55-2.481c-.63-2.705-1.802-5.932-3.8-5.932m0 11.362c-1.761 0-3.543-.853-4.536-2.174-.791-1.053-1.024-2.338-.655-3.618.806-2.79 2.025-7.008 5.19-7.008 2.396 0 4.097 2.305 5.201 7.045a4.275 4.275 0 01-.824 3.7c-1.006 1.267-2.683 2.055-4.376 2.055" mask="url(#b)"/><path fill="#000638" d="M45.295 52.737h.395a.69.69 0 00.69-.69V45.01c0-.38-.31-.69-.69-.69h-.395a.69.69 0 00-.69.69v7.036c0 .381.309.69.69.69m.615-18.238a.719.719 0 01-.718-.719V17.66h-9.387a.719.719 0 110-1.437H45.91c.397 0 .72.32.72.718v16.84a.72.72 0 01-.72.718M41.824 52.72h-6.348a.718.718 0 010-1.438h6.348a.72.72 0 010 1.438" mask="url(#b)"/></g></g></svg>