<svg xmlns="http://www.w3.org/2000/svg" width="60" height="61"><g fill="none"><path fill="#006ADC" d="M37.077.168c-1.58 0-3.187.231-4.775.717-8.566 2.617-13.374 11.638-10.74 20.15 2.147 6.931 8.566 11.386 15.503 11.386 1.58 0 3.188-.231 4.775-.717 8.565-2.617 13.375-11.637 10.74-20.148C50.435 4.623 44.015.168 37.078.168"/><path d="M38.38 10.653l-1.54-2.31h-4.354A2.486 2.486 0 0030 10.828v10.78a2.486 2.486 0 002.485 2.485h12.32a2.486 2.486 0 002.485-2.485v-8.47l-.007-.185a2.485 2.485 0 00-2.478-2.3H38.38zm-5.895-.42h3.344l1.54 2.31h7.436c.329 0 .595.266.595.595v8.47a.595.595 0 01-.595.595h-12.32a.595.595 0 01-.595-.595v-10.78c0-.329.266-.595.595-.595zM19.664 31.996h-.21c-8.398 0-15.207 6.809-15.207 15.206v7.566c0 .621.504 1.125 1.125 1.125h28.373c.621 0 1.125-.504 1.125-1.125v-7.566c0-8.397-6.809-15.206-15.206-15.206zm0 2.25l.388.006c6.975.205 12.568 5.925 12.568 12.95l-.001 6.44H6.497v-6.44c0-7.025 5.593-12.745 12.568-12.95l.599-.006zm0-18.853a6.8 6.8 0 100 13.599 6.8 6.8 0 00-.001-13.599zm0 2.25a4.55 4.55 0 11-.001 9.1 4.55 4.55 0 01.001-9.1z" fill="#000638"/></g></svg>