<svg xmlns="http://www.w3.org/2000/svg" xmlns:xlink="http://www.w3.org/1999/xlink" width="61" height="61"><defs><path id="a" d="M0 0h38.406v32.483H0z"/></defs><g fill="none" fill-rule="evenodd"><path fill="#006ADC" fill-rule="nonzero" d="M37.577.336c-1.58 0-3.187.231-4.775.717-8.566 2.617-13.374 11.638-10.74 20.15 2.147 6.931 8.566 11.386 15.503 11.386 1.58 0 3.188-.231 4.775-.717 8.565-2.617 13.375-11.637 10.74-20.148C50.935 4.791 44.515.336 37.578.336"/><g transform="translate(7.286 21.759)"><mask id="b" fill="#fff"><use xlink:href="#a"/></mask><path fill="#000638" d="M19.203 1.795a21.759 21.759 0 00-9.319 2.018C4.8 6.223 1.797 10.34 1.797 14.822c0 3.786 2.203 7.374 6.03 9.821l.692.447-.387.723a19.53 19.53 0 01-3.467 4.625c2.227-.394 4.959-1.375 5.758-3.42l.315-.822.827.304a22.408 22.408 0 007.638 1.322c5.868 0 11.304-2.206 14.548-5.893a10.759 10.759 0 002.857-7.143c.01-7.143-7.808-12.991-17.405-12.991M2.3 32.481c-.3.007-.601-.012-.898-.052-.9-.152-1.026-.742-1.034-.982 0-.84.898-1.044 1.194-1.108 1.717-.392 3.64-3.035 4.601-4.625C2.228 22.902 0 18.982 0 14.822 0 9.626 3.424 4.911 9.147 2.197A23.567 23.567 0 0119.203 0c10.585 0 19.203 6.644 19.203 14.822a12.503 12.503 0 01-3.307 8.33c-3.595 4.072-9.516 6.5-15.896 6.5a24.05 24.05 0 01-7.521-1.17c-1.905 3.25-7.054 4-9.381 4" mask="url(#b)"/></g><path fill="#000638" d="M26.498 21.769c10.584 0 19.203 6.642 19.203 14.822a11.897 11.897 0 01-1.232 5.258c3.73-2.517 5.949-6.142 5.949-10 0-7.348-7.89-13.32-17.585-13.32a20.681 20.681 0 00-12.58 4.044 24.428 24.428 0 016.235-.804h.01zm11.95 24.91l2.598-2.937a10.769 10.769 0 002.857-7.143c0-7.142-7.808-13.035-17.405-13.035a21.755 21.755 0 00-9.329 2.008l-3.233 1.555 2.164-2.894c3.46-4.625 9.886-7.49 16.74-7.49 10.687 0 19.374 6.776 19.374 15.106 0 5.554-3.89 10.652-10.144 13.295l-3.621 1.535zM18.249 35.492c.992 0 1.797.8 1.797 1.785 0 .987-.805 1.786-1.797 1.786a1.792 1.792 0 01-1.798-1.786c0-.986.805-1.785 1.798-1.785"/><path fill="#000638" d="M26.794 35.492c.992 0 1.797.8 1.797 1.785 0 .987-.805 1.786-1.797 1.786a1.792 1.792 0 01-1.798-1.786c0-.986.805-1.785 1.798-1.785m7.934 0c.992 0 1.798.8 1.798 1.785 0 .987-.806 1.786-1.798 1.786s-1.797-.799-1.797-1.786c0-.986.805-1.785 1.797-1.785"/></g></svg>