<svg xmlns="http://www.w3.org/2000/svg" width="60" height="61"><g fill="none"><path fill="#006ADC" d="M37.077.168c-1.58 0-3.187.231-4.775.717-8.566 2.617-13.374 11.638-10.74 20.15 2.147 6.931 8.566 11.386 15.503 11.386 1.58 0 3.188-.231 4.775-.717 8.565-2.617 13.375-11.637 10.74-20.148C50.435 4.623 44.015.168 37.078.168"/><path fill="#000638" d="M19.664 31.996h-.21c-8.398 0-15.207 6.809-15.207 15.206v7.566c0 .621.504 1.125 1.125 1.125h28.373c.621 0 1.125-.504 1.125-1.125v-7.566c0-8.397-6.809-15.206-15.206-15.206zm0 2.25l.388.006c6.975.205 12.568 5.925 12.568 12.95l-.001 6.44H6.497v-6.44c0-7.025 5.593-12.745 12.568-12.95l.599-.006zm0-18.853a6.8 6.8 0 100 13.599 6.8 6.8 0 00-.001-13.599zm0 2.25a4.55 4.55 0 11-.001 9.1 4.55 4.55 0 01.001-9.1zM43.4 14.968h-5.104V9.865a1.35 1.35 0 00-1.327-1.327c-.714 0-1.225.612-1.225 1.327v5.103h-5.103c-.715 0-1.327.613-1.327 1.327a1.35 1.35 0 001.327 1.327h5.103v5.104c0 .714.613 1.327 1.327 1.327.715 0 1.327-.613 1.327-1.327v-5.104h5.104c.714 0 1.327-.612 1.327-1.327 0-.714-.715-1.327-1.43-1.327z"/></g></svg>