<svg xmlns="http://www.w3.org/2000/svg" width="60" height="61"><g fill="none"><path fill="#006ADC" d="M37.077.336c-1.58 0-3.187.231-4.775.717-8.566 2.617-13.374 11.638-10.74 20.15 2.147 6.931 8.566 11.386 15.503 11.386 1.58 0 3.188-.231 4.775-.717 8.565-2.617 13.375-11.637 10.74-20.148C50.435 4.791 44.015.336 37.078.336"/><g fill="#000638"><path d="M45.813 13.804l-.068-.005H14.256c-1.239 0-2.249 1.516-2.249 3.375v33.413c0 1.858 1.01 3.375 2.25 3.375h31.488c1.238 0 2.249-1.517 2.249-3.375V17.174c0-1.73-.984-3.207-2.181-3.37zm-31.557 2.245h31.447l-.026-.005c.452.062.817.61.817 1.13v33.413c0 .616-.339 1.125-.75 1.125H14.257c-.41 0-.75-.51-.75-1.125V17.174c0-.616.34-1.125.75-1.125z"/><path d="M39.444 36.449a.75.75 0 01.135 1.488l-.135.012H19.756a.75.75 0 01-.134-1.488l.134-.012h19.688zm0-14.724a.75.75 0 01.135 1.488l-.135.012H19.756a.75.75 0 01-.134-1.488l.134-.012h19.688zm0 18.695a.75.75 0 01.135 1.488l-.135.012H19.756a.75.75 0 01-.134-1.487l.134-.013h19.688zm0 4.5a.75.75 0 01.135 1.488l-.135.012H19.756a.75.75 0 01-.134-1.487l.134-.013h19.688z"/></g></g></svg>