<svg xmlns="http://www.w3.org/2000/svg" width="60" height="61"><defs><filter id="a"><feColorMatrix in="SourceGraphic" values="0 0 0 0 0.000000 0 0 0 0 0.023529 0 0 0 0 0.219608 0 0 0 1.000000 0"/></filter></defs><g fill="none" fill-rule="evenodd"><path fill="#006ADC" fill-rule="nonzero" d="M37.077.252c-1.58 0-3.187.231-4.775.717-8.566 2.617-13.374 11.638-10.74 20.15 2.147 6.931 8.566 11.386 15.503 11.386 1.58 0 3.188-.231 4.775-.717 8.565-2.617 13.375-11.637 10.74-20.148C50.435 4.707 44.015.252 37.078.252"/><g stroke-linecap="round" stroke-linejoin="round" filter="url(#a)" transform="translate(0 .252)"><g stroke="#484C55" stroke-width="1.5" transform="translate(8 8.964)"><circle cx="7.638" cy="5.092" r="5.092"/><path d="M14.976 28.604v8.012l-.075 7.937c0 1.048-.899 1.872-1.947 1.872h0a1.934 1.934 0 01-1.947-1.947v-8.536a2.492 2.492 0 00-2.47-2.471h0a2.493 2.493 0 00-2.472 2.471v8.611A1.933 1.933 0 014.118 46.5h0a1.934 1.934 0 01-1.947-1.947v-15.95c0-.598-.524-1.122-1.123-1.122h0A1.026 1.026 0 010 26.432V15.8a2.685 2.685 0 012.696-2.696h3.669L8.536 15.5l2.247-2.396h11.082c.973 0 1.647.898 1.422 1.872-.15.674-.823 1.123-1.497 1.123h-6.814v5.84"/><ellipse cx="39.761" cy="4.043" rx="2.471" ry="2.92"/><path d="M40.959 9.51c.674.674 2.995.823 3.669 1.497.45.524.674 2.77.674 2.77M38.488 9.51c-.674.674-2.995.823-3.67 1.497-.448.524-.673 2.77-.673 2.77"/><ellipse cx="39.761" cy="19.993" rx="2.471" ry="2.92"/><path d="M40.959 25.459c.674.674 2.995.824 3.669 1.498.45.524.674 2.77.674 2.77m-6.814-4.268c-.674.674-2.995.824-3.67 1.498-.448.524-.673 2.77-.673 2.77"/><ellipse cx="39.761" cy="36.541" rx="2.471" ry="2.92"/><path d="M40.959 42.007c.674.674 2.995.824 3.669 1.498.45.524.674 2.77.674 2.77m-6.814-4.268c-.674.674-2.995.824-3.67 1.498-.448.524-.673 2.77-.673 2.77m-1.273-4.567l-2.92-.974c-2.022-.674-3.37-2.62-3.37-4.717v-25.16c0-2.096 1.348-4.043 3.37-4.717l2.92-.973m-6.215 18.869h6.215"/></g></g></g></svg>