<svg xmlns="http://www.w3.org/2000/svg" width="51" height="50"><g fill="none" fill-rule="evenodd"><circle cx="34.5" cy="23.5" r="16.5" fill="#EFF1FF"/><path fill="#000638" fill-rule="nonzero" d="M0 27.578V38.97c0 2.875 1.83 5.325 4.385 6.263a3.13 3.13 0 00-.45 1.6A3.172 3.172 0 007.103 50h27.084a3.17 3.17 0 003.166-3.167c0-.616-.184-1.187-.49-1.675 2.447-.991 4.18-3.39 4.18-6.188V27.578c0-4.306-3.365-7.909-7.66-8.202l-7.344-.502c2.841-1.824 4.733-5.004 4.733-8.624C30.77 4.598 26.172 0 20.52 0S10.27 4.598 10.27 10.25c0 3.62 1.892 6.8 4.733 8.624l-7.343.502C3.365 19.669 0 23.272 0 27.578zm33.298 16.089H7.99L6.063 27.583h29.162l-1.927 16.084zM34.186 48H7.102a1.167 1.167 0 010-2.333h27.084a1.167 1.167 0 010 2.333zM12.27 10.25C12.27 5.7 15.971 2 20.52 2c4.549 0 8.25 3.7 8.25 8.25 0 4.548-3.701 8.25-8.25 8.25-4.549 0-8.25-3.702-8.25-8.25zm8.25 10.252l12.724.87c3.25.221 5.797 2.947 5.797 6.206V38.97a4.685 4.685 0 01-3.715 4.576l2.018-16.843a.998.998 0 00-.993-1.12H4.936a.997.997 0 00-.748.337.995.995 0 00-.245.783l2.021 16.872C3.724 43.228 2 41.305 2 38.97V27.578c0-3.259 2.546-5.985 5.797-6.207l12.724-.869z"/></g></svg>