<svg xmlns="http://www.w3.org/2000/svg" width="61" height="61"><g fill="none"><path fill="#006ADC" d="M37.577.168c-1.58 0-3.187.231-4.775.717-8.566 2.617-13.374 11.638-10.74 20.15 2.147 6.931 8.566 11.386 15.503 11.386 1.58 0 3.188-.231 4.775-.717 8.565-2.617 13.375-11.637 10.74-20.148C50.935 4.623 44.515.168 37.578.168"/><g fill="#000638"><path d="M54.602 13.636l-.102-.005H7.25a3.381 3.381 0 00-3.375 3.375v33.413a3.382 3.382 0 003.375 3.375H54.5a3.382 3.382 0 003.375-3.375V17.006c0-1.73-1.477-3.207-3.273-3.37zM7.25 15.881h47.187l-.039-.005c.679.062 1.227.61 1.227 1.13v33.413c0 .616-.509 1.125-1.125 1.125H7.25c-.616 0-1.125-.51-1.125-1.125V17.006c0-.616.509-1.125 1.125-1.125z"/><path d="M17.262 31.294h-.112a8.663 8.663 0 00-8.663 8.662v4.05c0 .621.504 1.125 1.125 1.125H24.8c.621 0 1.125-.504 1.125-1.125v-4.05a8.663 8.663 0 00-8.663-8.662zm0 2.25l.311.007a6.413 6.413 0 016.102 6.405l-.002 2.925H10.737l.002-2.925a6.412 6.412 0 016.101-6.405l.423-.008zm0-11.138a4.163 4.163 0 10.002 8.326 4.163 4.163 0 00-.002-8.326zm0 2.25a1.912 1.912 0 11.002 3.824 1.912 1.912 0 01-.002-3.824zm32.063 11.625a.75.75 0 01.134 1.488l-.134.012H29.637a.75.75 0 01-.135-1.488l.135-.012h19.688zm-2.813 6.75a.75.75 0 01.135 1.488l-.135.012H29.637a.75.75 0 01-.135-1.488l.135-.012h16.875z"/></g></g></svg>