<svg xmlns="http://www.w3.org/2000/svg" width="60" height="61"><g fill="none"><path fill="#006ADC" d="M37.077.336c-1.58 0-3.187.231-4.775.717-8.566 2.617-13.374 11.638-10.74 20.15 2.147 6.931 8.566 11.386 15.503 11.386 1.58 0 3.188-.231 4.775-.717 8.565-2.617 13.375-11.637 10.74-20.148C50.435 4.791 44.015.336 37.078.336"/><path d="M12.03 43.57l1.108-.589 4.247 7.988c1.014 1.907 3.39 2.632 5.296 1.619s2.633-3.39 1.62-5.296l-3.267-6.143c7.351-5.737 23.267-3.643 24.161-4.543 2.548-1.97-.847-10.201-3.344-14.898-2.496-4.693-7.417-12.104-10.476-11.104-1.315.24-8.803 15.442-18.033 17.725-.045.012-.078.044-.119.06-.037.015-.077.015-.113.034a7.533 7.533 0 00-3.688 4.51l-2.376 1.263a2.971 2.971 0 00-1.23 4.016l2.196 4.129a2.972 2.972 0 004.017 1.228zm9.691 7.215a1.875 1.875 0 01-2.533-.774L15.2 42.508a7.528 7.528 0 004.07-.327l3.228 6.07a1.875 1.875 0 01-.775 2.534zm18.327-28.118c3.464 6.516 4.376 11.102 3.981 12.195-2.272-.037-6.96-7.998-8.043-10.035-3.238-6.09-4.256-10.488-4.009-11.996l.186-.284c1.127.282 4.42 3.603 7.885 10.12zM30.17 15.53c.608 2.992 2.217 6.881 4.011 10.256 1.795 3.374 4.118 6.882 6.258 9.06-7.735.064-15.546.893-20.385 4.462l-.478-.899-.003-.004-4.503-8.468c5.663-2.015 10.72-8.028 15.1-14.405zM13.21 30.793l5.088 9.568c-2.481.774-5.249-.297-6.513-2.674s-.605-5.27 1.425-6.894zm-5.59 6.461a.93.93 0 01.383-1.256l1.11-.59a7.506 7.506 0 00.87 3.238 7.509 7.509 0 002.198 2.531l-1.11.59a.93.93 0 01-1.257-.384l-2.196-4.128zm41.158-20.463l-5.37 2.856a1.02 1.02 0 10.957 1.803l5.372-2.856a1.02 1.02 0 10-.959-1.803zm-5-5.276l-2.524 5.388a1.023 1.023 0 00.492 1.358 1.023 1.023 0 001.358-.493l2.524-5.387a1.023 1.023 0 00-.491-1.359 1.023 1.023 0 00-1.358.493zm8.77 13.446a1.022 1.022 0 00-.852-1.167l-5.878-.92a1.023 1.023 0 00-1.167.85c-.086.558.294 1.08.85 1.168l5.88.92a1.023 1.023 0 001.167-.851z" fill="#000638"/></g></svg>