<svg width="50" height="50" viewBox="0 0 50 50" fill="none" xmlns="http://www.w3.org/2000/svg">
<path d="M22.25 24.65C21.599 24.6491 20.9516 24.7468 20.33 24.94C17.2215 25.88 15.2736 28.9586 15.7553 32.1702C16.237 35.3818 19.0025 37.7534 22.25 37.74C22.9039 37.7368 23.554 37.6391 24.18 37.45C27.2613 36.484 29.1788 33.4165 28.6974 30.2234C28.2159 27.0303 25.4791 24.6645 22.25 24.65Z" fill="#80829B"/>
<path d="M20.45 27.47C21.0644 29.4056 20.4471 31.5205 18.888 32.8216C17.3289 34.1228 15.1376 34.3517 13.3432 33.4009C11.5488 32.4501 10.5078 30.5084 10.7089 28.4876C10.91 26.4669 12.3134 24.7685 14.26 24.19C16.8724 23.4136 19.6254 24.8724 20.45 27.47Z" fill="white"/>
<path d="M34.61 43.15C35.4059 45.7358 33.9556 48.4773 31.3701 49.2742C28.7847 50.071 26.0426 48.6217 25.2447 46.0366C24.4469 43.4515 25.8951 40.7089 28.48 39.91C29.7225 39.526 31.0667 39.6517 32.2165 40.2594C33.3663 40.8672 34.2274 41.907 34.61 43.15Z" fill="white"/>
<path d="M4.32001 35.91C3.98112 35.9106 3.64417 35.9612 3.32001 36.06C1.63011 36.581 0.627424 38.3165 1.02017 40.0407C1.41292 41.7649 3.06833 42.8949 4.81715 42.6326C6.56596 42.3703 7.81697 40.8043 7.68655 39.0407C7.55614 37.2772 6.08839 35.9122 4.32001 35.91" fill="white"/>
<path d="M35.54 29.86C35.2924 29.8573 35.0459 29.8944 34.81 29.97C33.6276 30.3329 32.8882 31.5058 33.0708 32.7291C33.2534 33.9524 34.3032 34.8583 35.54 34.86C35.7906 34.8577 36.0396 34.8207 36.28 34.75C37.4643 34.3866 38.2038 33.2107 38.0185 31.9859C37.8331 30.7611 36.7788 29.8567 35.54 29.86Z" fill="#CCCDD7"/>
<path d="M8.68002 10.49C8.12384 10.4898 7.57086 10.5741 7.04002 10.74C4.26147 11.6026 2.61774 14.4614 3.27009 17.2967C3.92244 20.132 6.65027 21.9849 9.5264 21.5465C12.4025 21.1081 14.4544 18.5265 14.2323 15.6256C14.0102 12.7247 11.5894 10.4855 8.68002 10.49Z" fill="#80829B"/>
<path d="M31 0.790009C29.9621 0.790223 28.9302 0.948711 27.94 1.26001C23.053 2.78142 20.002 7.63524 20.75 12.6986C21.4979 17.762 25.8219 21.5265 30.94 21.57C31.9771 21.5683 33.0083 21.4133 34 21.11C38.9035 19.6006 41.9711 14.7379 41.2218 9.66235C40.4725 4.58679 36.1305 0.818064 31 0.790009" fill="#CCCDD7"/>
<path d="M41.13 6.63999C38.9111 6.64093 37.0592 8.33363 36.8592 10.5434C36.6593 12.7532 38.1774 14.7508 40.36 15.15C40.6171 15.1981 40.8783 15.2215 41.14 15.22C43.3588 15.2191 45.2107 13.5264 45.4107 11.3166C45.6106 9.10681 44.0925 7.10918 41.91 6.70999C41.6528 6.66189 41.3916 6.63845 41.13 6.63999Z" fill="white"/>
</svg>
