<svg width="785" height="255" viewBox="0 0 755 255" preserveAspectRatio="xMinYMin meet" fill="none" xmlns="http://www.w3.org/2000/svg"><path d="M236.45 164.4a6.955 6.955 0 01-1.85-5v-53.95a6.901 6.901 0 017.5-7.35 7.3 7.3 0 015.45 2 7.247 7.247 0 012 5.35V154h24.6c4.65 0 7 2.05 7 6.15 0 4.1-2.35 6.05-7 6.05H241.6a6.95 6.95 0 01-5.15-1.8z" fill="#006ADC"/><path fill-rule="evenodd" clip-rule="evenodd" d="M329.1 157.65a6.047 6.047 0 00-1.2-3.9 3.701 3.701 0 00-3-1.3 7.6 7.6 0 00-2.2.4l-2.6 1.05c-1.9.75-3.55 1.35-5 1.8a17 17 0 01-5 .65 11.299 11.299 0 01-7.95-2.5 12.898 12.898 0 01-3.45-8.2h26.85a3.649 3.649 0 002.85-1.15 4.649 4.649 0 001-3.2 26.148 26.148 0 00-2.7-12.2 19.601 19.601 0 00-7.5-8.1 22.397 22.397 0 00-11.3-2.8 23.558 23.558 0 00-12 3.1 22.305 22.305 0 00-8.25 8.7 26.96 26.96 0 00-2.95 12.5 26.147 26.147 0 003.05 13 20.896 20.896 0 008.8 8.5 28.24 28.24 0 0013.35 2.95 31.937 31.937 0 008-1.1 32.5 32.5 0 007.55-2.8 8.35 8.35 0 002.7-2.35 5 5 0 00.95-3.05zm-30.4-19.45a12.447 12.447 0 012.95-7.65 8.854 8.854 0 016.65-2.65 8.051 8.051 0 016.35 2.6 12.697 12.697 0 012.55 7.7h-18.5z" fill="#006ADC"/><path d="M345.8 166a23.241 23.241 0 01-7.55-3.05 6.206 6.206 0 01-2.25-2.3 7.009 7.009 0 01-.75-3.3 5.302 5.302 0 011.25-3.65 3.85 3.85 0 013.05-1.5 8.449 8.449 0 012.5.4l2.6 1.05a40.292 40.292 0 005.3 1.95c2.091.528 4.245.763 6.4.7a10.848 10.848 0 005-1.05 3.148 3.148 0 001.85-2.85 2.797 2.797 0 00-.8-2.15 7.445 7.445 0 00-3.05-1.5c-1.45-.45-3.8-1-7-1.65a26.153 26.153 0 01-12.25-5 11.402 11.402 0 01-3.75-9.1 12.452 12.452 0 012.65-7.75 16.906 16.906 0 017.5-5.25 26.167 26.167 0 0110.35-1.95 30.922 30.922 0 018.15.95 26.12 26.12 0 017 2.95 5.95 5.95 0 013 5.4 6.25 6.25 0 01-1.25 3.85 3.899 3.899 0 01-3.1 1.5 11.149 11.149 0 01-5-1.7 28.495 28.495 0 00-4.4-1.9 15.887 15.887 0 00-4.65-.6 8.605 8.605 0 00-4.7 1.1 3.401 3.401 0 00-1.7 3 3.35 3.35 0 002 3.1 32.04 32.04 0 007.75 2.1 45.032 45.032 0 0110 3 11.853 11.853 0 015 4.5 12.803 12.803 0 011.65 6.8 12.65 12.65 0 01-5.6 10.85 25.003 25.003 0 01-15 4 47.15 47.15 0 01-10.2-.95z" fill="#006ADC"/><path fill-rule="evenodd" clip-rule="evenodd" d="M453.751 157.649a6.059 6.059 0 00-1.2-3.9 3.706 3.706 0 00-2.9-1.55 8.273 8.273 0 00-2.25.4l-2.55 1.05c-1.9.75-3.55 1.35-5 1.8a17.28 17.28 0 01-5 .65 11.297 11.297 0 01-7.95-2.5 12.896 12.896 0 01-3.45-8.2h26.85a3.75 3.75 0 002.85-1.15 4.654 4.654 0 001-3.2 26.16 26.16 0 00-2.7-12.2 19.41 19.41 0 00-7.55-8.1 22.116 22.116 0 00-11.25-2.8 23.304 23.304 0 00-12 3.1 22.305 22.305 0 00-8.25 8.7 29.147 29.147 0 000 25.75 20.64 20.64 0 008.8 8.5 28.237 28.237 0 0013.35 2.95 31.227 31.227 0 007.95-1.1 32.157 32.157 0 007.6-2.8 8.35 8.35 0 002.7-2.35 5.004 5.004 0 00.95-3.05zm-30.4-19.45a12.447 12.447 0 012.95-7.65 8.75 8.75 0 016.65-2.65 8.053 8.053 0 016.35 2.6 12.71 12.71 0 012.55 7.7h-18.5z" fill="#006ADC"/><path d="M532.6 122.6a22.646 22.646 0 014.15 15V160a6.496 6.496 0 01-2 5 7.802 7.802 0 01-5 1.75 8.059 8.059 0 01-5-1.75 6.204 6.204 0 01-2.1-5v-22.4a9.996 9.996 0 00-1.6-6.45 5.949 5.949 0 00-5-1.9 8.1 8.1 0 00-6.45 2.8A11.502 11.502 0 00507 140v20a6.296 6.296 0 01-2 5 7.802 7.802 0 01-5 1.75 8.059 8.059 0 01-5-1.75 6.204 6.204 0 01-2.1-5v-22.4a9.992 9.992 0 00-1.55-6.45 6.097 6.097 0 00-5-1.9 8.1 8.1 0 00-6.45 2.8 11.5 11.5 0 00-2.4 7.75v20a6.35 6.35 0 01-2.05 5 8.45 8.45 0 01-10.45.2 6.105 6.105 0 01-2.15-5v-35a6.053 6.053 0 012.15-5 8.15 8.15 0 015-1.7 6.996 6.996 0 015 1.65 5.845 5.845 0 011.9 4.65v.95a15.945 15.945 0 016-5.55 18.54 18.54 0 018.4-1.9 16.935 16.935 0 018.7 1.9 13.243 13.243 0 015.4 6.65 16.704 16.704 0 016.3-6.35 18.446 18.446 0 019.25-2.35 14.995 14.995 0 0111.65 4.65z" fill="#006ADC"/><path fill-rule="evenodd" clip-rule="evenodd" d="M595 130a20.892 20.892 0 00-7.35-8.95 19.397 19.397 0 00-10.8-3.1 18.85 18.85 0 00-8.8 2.05 15.005 15.005 0 00-6.4 5.75V125a6.547 6.547 0 00-1.95-5 6.999 6.999 0 00-5-1.85 7.252 7.252 0 00-5 1.85 6.551 6.551 0 00-1.95 5v52.15a6.104 6.104 0 002.05 5 8.002 8.002 0 005.4 1.8 7.095 7.095 0 005-1.75 5.798 5.798 0 001.95-4.6v-18.1a14.405 14.405 0 005.95 5.5 19.194 19.194 0 008.7 1.95A19.25 19.25 0 00595 155.5a29.387 29.387 0 002.65-12.6A30 30 0 00595 130zm-11.7 12.55a15.298 15.298 0 01-2.8 10v-.05a10.698 10.698 0 01-15.75 0 19.45 19.45 0 010-20 9.5 9.5 0 017.9-3.55 9.4 9.4 0 017.85 3.6 16.339 16.339 0 012.8 10z" fill="#006ADC"/><path d="M608.55 165a6.356 6.356 0 01-2.05-5v-55a6.354 6.354 0 012.05-5 8 8 0 015-1.7 7.798 7.798 0 015 1.7 6.348 6.348 0 012.05 5v55a6.35 6.35 0 01-2.05 5 7.853 7.853 0 01-5 1.75 8.005 8.005 0 01-5-1.75z" fill="#006ADC"/><path fill-rule="evenodd" clip-rule="evenodd" d="M632.9 155.4a21.104 21.104 0 008.7 8.55 30.3 30.3 0 0026.3 0 20.9 20.9 0 008.75-8.55 29.247 29.247 0 000-26 21.1 21.1 0 00-8.75-8.5 30.8 30.8 0 00-26.3 0 21.248 21.248 0 00-8.7 8.5 28.804 28.804 0 000 26zm29.7-23a15.997 15.997 0 012.7 10c0 9.05-3.55 13.7-10.55 13.7-7 0-10.55-4.55-10.55-13.55S647.75 129 654.75 129a9.599 9.599 0 017.85 3.4zM687.8 103.15a6.701 6.701 0 002.2 5.35v-.2a10.35 10.35 0 0012.1 0 6.85 6.85 0 002.2-5.35 6.55 6.55 0 00-2.25-5 8.6 8.6 0 00-6-2A8.8 8.8 0 00690 97.9a6.4 6.4 0 00-2.2 5.25zm.75 56.85a6.351 6.351 0 002.05 5 7.902 7.902 0 005.05 1.75 7.601 7.601 0 005-1.75 6.201 6.201 0 002.1-5v-35a6.2 6.2 0 00-2.1-5 7.55 7.55 0 00-5-1.7 7.946 7.946 0 00-5 1.7 6.2 6.2 0 00-2.1 5v35z" fill="#006ADC"/><path d="M721.85 165.999a23.491 23.491 0 01-7.6-3.05 6.045 6.045 0 01-2.2-2.3 6.997 6.997 0 01-.75-3.3 5.302 5.302 0 011.25-3.65 3.803 3.803 0 013.05-1.5 8.728 8.728 0 012.5.4l2.6 1.05a39.575 39.575 0 005.25 1.95c2.108.525 4.278.76 6.45.7a10.745 10.745 0 005-1.05 3.2 3.2 0 001.9-2.85 2.799 2.799 0 00-.85-2.15 7.515 7.515 0 00-3-1.5c-1.45-.45-3.8-1-7-1.65a26.336 26.336 0 01-12.3-5 11.398 11.398 0 01-3.75-9.1 12.452 12.452 0 012.65-7.75 17.208 17.208 0 017.45-5.25 26.5 26.5 0 0110.35-1.95 31.635 31.635 0 018.1 1.05 26.812 26.812 0 017 2.95 6 6 0 012.95 5.4 5.948 5.948 0 01-1.25 3.85 3.797 3.797 0 01-3.05 1.5 11.141 11.141 0 01-5.3-1.7 30.487 30.487 0 00-4.35-1.9 15.954 15.954 0 00-4.65-.6 8.502 8.502 0 00-4.7 1.1 3.45 3.45 0 00-1.75 3 3.398 3.398 0 002.05 3.1 30.64 30.64 0 007.75 2.1 43.608 43.608 0 0110 3 12.3 12.3 0 015.3 4.5 13.75 13.75 0 01-4 17.65 24.99 24.99 0 01-15 4 46.337 46.337 0 01-10.1-1.05z" fill="#006ADC"/><path fill-rule="evenodd" clip-rule="evenodd" d="M265.8 202.35a3.054 3.054 0 00-.8-2.1h.25a3.55 3.55 0 00-4.5 0 2.847 2.847 0 00-.75 2.1v20a12.004 12.004 0 00-5-5.35 14.35 14.35 0 00-7.45-1.85 14.999 14.999 0 00-14.15 8.9 22.906 22.906 0 00-2 10 23.358 23.358 0 002 10 15.954 15.954 0 005.7 6.7 15.003 15.003 0 008.45 2.4c2.61.056 5.186-.601 7.45-1.9a11.852 11.852 0 005-5.3V250a3.05 3.05 0 105.8 0v-47.65zM260 234.2a16.4 16.4 0 01-3.1 10.3l.2-.2a11.1 11.1 0 01-16.45 0 15.954 15.954 0 01-3-10.35 14.999 14.999 0 013-10 9.998 9.998 0 018.25-3.6 10.001 10.001 0 018.2 3.6 16.055 16.055 0 012.9 10.25zM307.35 246.75a2.551 2.551 0 00-.6-1.75 1.852 1.852 0 00-1.45-.7 6.856 6.856 0 00-2.6 1.1 35.967 35.967 0 01-4.5 2.15 14.99 14.99 0 01-5 .8c-7.7 0-11.8-4.3-12.25-12.9H305a2.501 2.501 0 001.95-.65 3.3 3.3 0 00.6-2.2 17.946 17.946 0 00-4.2-12.55 14.5 14.5 0 00-11.3-4.65 16.753 16.753 0 00-8.95 2.4 15.85 15.85 0 00-6.1 6.7 21.546 21.546 0 00-2.2 10 19.054 19.054 0 005 13.85 17.95 17.95 0 0013.4 5 23.747 23.747 0 0011.5-3.15c1.75-1.05 2.65-2.2 2.65-3.45zM281.1 231.6a13.8 13.8 0 013.45-8.45v-.2a10.004 10.004 0 017.65-2.95 9.4 9.4 0 017.35 3.1 13.003 13.003 0 012.75 8.5h-21.2z" fill="#000638"/><path d="M345.3 251.45a6.35 6.35 0 01-2.05-5v-55a6.35 6.35 0 012.05-5 7.993 7.993 0 015-1.7 7.797 7.797 0 015 1.7 6.346 6.346 0 012.05 5v55a6.346 6.346 0 01-2.05 5 7.853 7.853 0 01-5 1.75 8.005 8.005 0 01-5-1.75zM381.65 187.2a12.348 12.348 0 012.3 7.8 24.399 24.399 0 01-7.2 17.45 4 4 0 01-3 1.35 4.358 4.358 0 01-2.85-1.1 3.452 3.452 0 01-1.25-2.65 3.6 3.6 0 011.05-2.5 17.254 17.254 0 004.3-7.05 8.054 8.054 0 01-5-2.4 7.4 7.4 0 01-2-5.35 8.103 8.103 0 012-5.9 7.296 7.296 0 015.6-2.35 7.698 7.698 0 016.05 2.7z" fill="#000638"/><path fill-rule="evenodd" clip-rule="evenodd" d="M392.8 189.65A6.854 6.854 0 00395 195a10.35 10.35 0 0012.15 0 6.7 6.7 0 002.15-5.3 6.55 6.55 0 00-2.25-5 8.595 8.595 0 00-6-2 8.897 8.897 0 00-6.05 1.95 6.6 6.6 0 00-2.2 5zm.95 56.9a6.201 6.201 0 002.1 5 8.55 8.55 0 0010.35 0 6.352 6.352 0 002.05-5v-35a6.35 6.35 0 00-2.05-5 8.65 8.65 0 00-10.3 0 6.098 6.098 0 00-2.15 5v35z" fill="#000638"/><path d="M461.55 209.3a22.85 22.85 0 014.15 15v22.15a6.298 6.298 0 01-2 5 8.5 8.5 0 01-10.6 0 6.605 6.605 0 01-1.9-5V225a11.148 11.148 0 00-1.8-7 6.65 6.65 0 00-5.5-2.2 9.502 9.502 0 00-7.25 2.9 10.653 10.653 0 00-2.7 7.65v20a6.448 6.448 0 01-1.95 5 7.397 7.397 0 01-5.25 1.85 7.651 7.651 0 01-5.35-1.85 6.451 6.451 0 01-1.95-5v-35a6.104 6.104 0 012.05-5 7.854 7.854 0 015.35-1.8 6.751 6.751 0 015 1.75 6.048 6.048 0 011.9 4.55v1.35a16.507 16.507 0 016.25-5.85 19.71 19.71 0 019-2 15.45 15.45 0 0112.55 4.95zM485.55 250.4a20.403 20.403 0 01-8.4-8.45 26.897 26.897 0 01-2.9-12.85 26.05 26.05 0 013.1-13 21.548 21.548 0 018.75-8.7 27.052 27.052 0 0113.05-3.05c2.619.005 5.225.358 7.75 1.05a26.475 26.475 0 016.95 2.95 6 6 0 013 5.4 6.798 6.798 0 01-1.15 4.05 3.599 3.599 0 01-3.1 1.6 6.125 6.125 0 01-2.35-.45c-.75 0-1.7-.7-2.9-1.25a27.018 27.018 0 00-3.6-1.65 10.013 10.013 0 00-3.6-.6 10 10 0 00-8.2 3.45 14.999 14.999 0 00-2.85 10 15.398 15.398 0 002.85 10 9.998 9.998 0 008.2 3.45 10.976 10.976 0 003.55-.55 29.985 29.985 0 003.7-1.65l2.9-1.3a5.708 5.708 0 012.3-.45 3.651 3.651 0 013.05 1.65 6.757 6.757 0 011.2 4.1 5.699 5.699 0 01-3 5.3 26.072 26.072 0 01-7.1 2.95c-2.76.709-5.6 1.062-8.45 1.05a26.094 26.094 0 01-12.75-3.05zM526 251.45a6.203 6.203 0 01-2.1-5v-55a6.204 6.204 0 012.1-5 8.75 8.75 0 0110.35 0 6.198 6.198 0 012.05 5v55a6.196 6.196 0 01-2.05 5 8.548 8.548 0 01-10.35 0zM592.95 206.35a6.55 6.55 0 012 5v35a6 6 0 01-2.1 5 7.742 7.742 0 01-5.3 1.85 6.847 6.847 0 01-5-1.75 6.15 6.15 0 01-1.85-4.6v-.95a14.7 14.7 0 01-5.7 5.55 19.6 19.6 0 01-21.4-3 22.151 22.151 0 01-4.35-15v-22.1a6.502 6.502 0 011.95-5 7.702 7.702 0 015.35-1.8 7.252 7.252 0 015.25 1.8 6.499 6.499 0 011.95 5v22.45a9.505 9.505 0 001.75 6.2 6.9 6.9 0 005.45 2 8.745 8.745 0 006.85-2.9 10.698 10.698 0 002.65-7.55v-20a6.504 6.504 0 011.9-5 7.503 7.503 0 015.3-1.8 7.55 7.55 0 015.3 1.6zM613.75 252.399a23.491 23.491 0 01-7.6-3.05 6.045 6.045 0 01-2.2-2.3 6.997 6.997 0 01-.75-3.3 5.302 5.302 0 011.25-3.65 3.8 3.8 0 013.05-1.5 7.355 7.355 0 012.5.45c.885.285 1.753.619 2.6 1a39.48 39.48 0 005 1.95c2.108.525 4.278.76 6.45.7a10.643 10.643 0 005-1.05 3.2 3.2 0 001.9-2.85 2.799 2.799 0 00-.85-2.15 7.158 7.158 0 00-3-1.5c-1.45-.45-3.8-1-7-1.65a26.336 26.336 0 01-12.3-5 11.398 11.398 0 01-3.75-9.1 12.452 12.452 0 012.65-7.75 17.6 17.6 0 017.25-5.45 26.5 26.5 0 0110.35-1.95 31.591 31.591 0 018.1 1.05 26.812 26.812 0 017 2.95 6.05 6.05 0 012.95 5.4 5.843 5.843 0 01-1.25 3.85 3.797 3.797 0 01-3.05 1.5 11.141 11.141 0 01-5.3-1.7 30.487 30.487 0 00-4.35-1.9 15.92 15.92 0 00-4.65-.6 8.502 8.502 0 00-4.7 1.1 3.45 3.45 0 00-1.75 3 3.398 3.398 0 002.05 3.1 30.64 30.64 0 007.75 2.1 45.064 45.064 0 0110 3c2.14.975 3.96 2.535 5.25 4.5a13.75 13.75 0 01-4 17.65 24.99 24.99 0 01-15 4 46.363 46.363 0 01-9.6-.85z" fill="#000638"/><path fill-rule="evenodd" clip-rule="evenodd" d="M651.85 189.65a6.7 6.7 0 002.2 5.35 10.299 10.299 0 0012.05 0 6.749 6.749 0 002.25-5.35 6.45 6.45 0 00-2.3-5 9.999 9.999 0 00-12 0 6.404 6.404 0 00-2.2 5zm1.1 56.8a6.199 6.199 0 002.05 5h-.3a8.55 8.55 0 0010.35 0 6.199 6.199 0 002.05-5v-35a6.201 6.201 0 00-2.05-5 7.704 7.704 0 00-5-1.7 7.903 7.903 0 00-5 1.7 6.203 6.203 0 00-2.1 5v35zM679.15 241.8a21.194 21.194 0 008.75 8.55 30.3 30.3 0 0026.3 0 21.2 21.2 0 008.75-8.55 29.247 29.247 0 000-26 21.401 21.401 0 00-8.75-8.5 30.8 30.8 0 00-26.3 0 21.401 21.401 0 00-8.75 8.5 29.247 29.247 0 000 26zm29.7-23a15.645 15.645 0 012.75 10c0 9.05-3.5 13.7-10.55 13.7-7.05 0-10.55-4.55-10.55-13.55s3.5-13.5 10.55-13.5a9.399 9.399 0 017.8 3.35z" fill="#000638"/><path d="M776.95 209.299a22.847 22.847 0 014.1 15v22.15a6.444 6.444 0 01-1.95 5 7.64 7.64 0 01-5.35 1.85 7.45 7.45 0 01-5.25-1.85 6.404 6.404 0 01-1.9-5v-21.45a11.148 11.148 0 00-1.8-7 6.702 6.702 0 00-5.5-2.2 9.403 9.403 0 00-7.25 2.9 10.508 10.508 0 00-2.75 7.65v20a6.595 6.595 0 01-1.9 5 8.5 8.5 0 01-10.6 0 6.3 6.3 0 01-2-5v-35a6.002 6.002 0 012.1-5 7.753 7.753 0 015.3-1.8 6.854 6.854 0 015 1.75 6 6 0 011.85 4.55v1.35a16.953 16.953 0 016.5-5.85 19.462 19.462 0 018.95-2 15.452 15.452 0 0112.45 4.95z" fill="#000638"/><path d="M111.25 122.3c-3.253.02-6.486.508-9.6 1.45-15.518 4.696-25.239 20.068-22.83 36.101 2.409 16.033 16.217 27.87 32.43 27.799a32.21 32.21 0 009.6-1.45c15.373-4.823 24.942-20.126 22.549-36.059-2.394-15.933-16.037-27.748-32.149-27.841z" fill="#7FB4ED"/><path d="M102.25 136.4c3.977 13.039-3.363 26.834-16.398 30.823-13.035 3.989-26.838-3.336-30.84-16.368-4.001-13.031 3.31-26.841 16.338-30.855a24.649 24.649 0 0130.9 16.4z" fill="#006ADC"/><path d="M155 3.25c-22.392-.088-42.31 14.21-49.391 35.453-7.082 21.243.275 44.632 18.241 57.998 17.966 13.365 42.482 13.687 60.793.798 18.311-12.89 26.278-36.077 19.757-57.5-6.733-21.68-26.698-36.532-49.4-36.75z" fill="#E5F0FB"/><path d="M205.5 32.4c-10.994.136-20.106 8.563-21.098 19.513-.992 10.95 6.457 20.878 17.248 22.987 1.286.24 2.592.358 3.9.35 11.059-.028 20.275-8.477 21.261-19.492.986-11.015-6.583-20.966-17.461-22.958a20.548 20.548 0 00-3.85-.4" fill="#3388E3"/><path d="M172.95 214.7a24.498 24.498 0 01-7.831 26.072 24.498 24.498 0 01-39.982-21.232 24.499 24.499 0 0117.213-21.09 24.448 24.448 0 0130.6 16.25z" fill="#006ADC"/><path d="M21.75 178.5a16.85 16.85 0 109.732 30.6 16.85 16.85 0 006.368-18.7 17 17 0 00-16.1-11.9z" fill="#4C96E6"/><path d="M177.6 148.299a13.237 13.237 0 00-3.65.55 12.449 12.449 0 00-8.823 13.793 12.449 12.449 0 0012.473 10.607 11.527 11.527 0 003.65-.55 12.45 12.45 0 00-3.65-24.4z" fill="#B2D2F4"/><path d="M43.5 51.65c-15.381 0-27.85 12.47-27.85 27.85 0 15.382 12.469 27.85 27.85 27.85 2.76-.006 5.505-.41 8.15-1.2 13.22-4.011 21.5-17.106 19.457-30.769C69.064 61.72 57.314 51.62 43.5 51.651z" fill="#99C3F1"/></svg>
