<svg height="61" viewBox="0 0 60 61" width="60" xmlns="http://www.w3.org/2000/svg"><g fill="none" fill-rule="evenodd"><path d="m37.077 0c-1.58 0-3.187.231-4.775.717-8.566 2.617-13.374 11.638-10.74 20.15 2.147 6.931 8.566 11.386 15.503 11.386 1.58 0 3.188-.231 4.775-.717 8.565-2.617 13.375-11.637 10.74-20.148-2.145-6.933-8.565-11.388-15.502-11.388" fill="#006adc" fill-rule="nonzero" transform="translate(0 .252)"/><path d="m19.664 31.828h-.21c-8.398 0-15.207 6.809-15.207 15.206v7.566c0 .621.504 1.125 1.125 1.125h28.373c.621 0 1.125-.504 1.125-1.125v-7.566c0-8.397-6.809-15.206-15.206-15.206zm0 2.25.388.006c6.975.205 12.568 5.925 12.568 12.95l-.001 6.44h-26.122v-6.44c0-7.025 5.593-12.745 12.568-12.95zm0-18.853c-3.756 0-6.8 3.044-6.8 6.8 0 3.755 3.044 6.799 6.8 6.799 3.755 0 6.799-3.044 6.799-6.8 0-3.755-3.044-6.799-6.8-6.799zm0 2.25c2.512 0 4.549 2.037 4.549 4.55 0 2.512-2.037 4.549-4.55 4.549-2.512 0-4.549-2.037-4.549-4.55 0-2.512 2.037-4.549 4.55-4.549z" fill="#000638" fill-rule="nonzero" transform="translate(0 .252)"/><g stroke="#000638" stroke-linecap="round" stroke-linejoin="round" transform="matrix(-1 0 0 1 45.546 7.904)"><path d="m15.5 7.023h-.014c-1.292 0-1.939-1.561-1.026-2.475l.018-.018c.565-.567.565-1.484 0-2.05l-.012-.013c-.567-.566-1.485-.567-2.052 0l-.011.01c-.914.914-2.476.266-2.476-1.026 0-.802-.65-1.451-1.45-1.451h-.003c-.801 0-1.45.65-1.45 1.45v.002c0 1.292-1.562 1.94-2.476 1.027l-.016-.016c-.567-.566-1.486-.565-2.052.002l-.015.015c-.565.566-.565 1.483 0 2.05l.019.018c.912.914.264 2.475-1.027 2.475h-.007c-.801 0-1.45.65-1.45 1.45v.003c0 .801.65 1.45 1.45 1.45 1.293 0 1.94 1.563 1.026 2.477l-.009.01c-.567.566-.566 1.486.001 2.052l.012.012c.567.565 1.484.565 2.05 0l.018-.018c.914-.913 2.475-.266 2.475 1.026v.014c0 .802.65 1.451 1.45 1.451h.003c.801 0 1.45-.65 1.45-1.45v-.012c0-1.292 1.563-1.94 2.477-1.026l.012.012c.566.566 1.484.566 2.05 0l.01-.009c.566-.566.567-1.485 0-2.052l-.01-.01c-.914-.914-.267-2.476 1.025-2.476h.01c.8 0 1.45-.65 1.45-1.45v-.003c0-.801-.65-1.45-1.45-1.45z"/><circle cx="8.475" cy="8.475" r="2.824"/></g></g></svg>