<svg xmlns="http://www.w3.org/2000/svg" width="60" height="61" viewBox="0 0 60 61">
    <g fill="none" fill-rule="evenodd">
        <g fill-rule="nonzero">
            <g>
                <g>
                    <path fill="#006ADC" d="M37.077 0c-1.58 0-3.187.231-4.775.717-8.566 2.617-13.374 11.638-10.74 20.15 2.147 6.931 8.566 11.386 15.503 11.386 1.58 0 3.188-.231 4.775-.717 8.565-2.617 13.375-11.637 10.74-20.148C50.435 4.455 44.015 0 37.078 0" transform="translate(-939 -802) translate(924 784.336) translate(15 18)"/>
                    <g fill="#000638">
                        <path d="M2.97 20.038h1.255v9.047C4.225 31.244 5.982 33 8.141 33s3.916-1.756 3.916-3.915v-6.958c9.184-1.614 22.254 7.707 23.466 7.332 3.174-.543 4.041-9.405 4.041-14.724 0-5.316-.866-14.17-4.036-14.723-1.274-.405-15.022 9.502-24.244 7.184-.045-.01-.089.003-.133-.002-.04-.005-.075-.023-.116-.023-2.1 0-4.002.862-5.373 2.25H2.971C1.332 9.42 0 10.751 0 12.39v4.676c0 1.639 1.332 2.97 2.97 2.97zm5.17 10.92c-1.032 0-1.873-.84-1.873-1.873v-8.497c1.052.857 2.34 1.431 3.747 1.622v6.875c0 1.033-.84 1.873-1.873 1.873zm29.382-16.223c0 7.38-1.348 11.857-2.21 12.637-1.989-1.1-2.39-10.33-2.39-12.637 0-6.898 1.166-11.258 2.092-12.474l.297-.163c.863.778 2.211 5.256 2.211 12.637zm-5.37-10.938c-.868 2.927-1.273 7.116-1.273 10.938 0 3.822.405 8.01 1.272 10.937-6.86-3.574-14.146-6.51-20.094-5.63v-1.018l-.001-.005V9.428c5.946.88 13.234-2.055 20.095-5.63zM10.012 9.311v10.836c-2.554-.481-4.495-2.726-4.495-5.418s1.94-4.937 4.495-5.418zm-7.97 3.08c0-.512.416-.929.928-.929h1.258c-.477.99-.753 2.096-.753 3.267 0 1.171.276 2.276.753 3.267H2.97c-.512 0-.929-.417-.929-.929v-4.676zm45.948 1.255h-6.083c-.565 0-1.021.457-1.021 1.021 0 .565.456 1.021 1.02 1.021h6.084c.565 0 1.022-.456 1.022-1.02 0-.565-.457-1.022-1.022-1.022zM46.053 6.64l-4.759 3.572c-.45.339-.541.978-.203 1.43.333.443.97.546 1.43.203l4.758-3.572c.451-.339.542-.978.204-1.43-.338-.451-.977-.539-1.43-.203zm1.43 15.989c.338-.452.247-1.091-.204-1.43l-4.758-3.572c-.453-.337-1.09-.248-1.43.203-.338.452-.247 1.091.203 1.43l4.759 3.572c.46.343 1.097.24 1.43-.203z" transform="translate(-939 -802) translate(924 784.336) translate(15 18) rotate(-28 54.018 13.468)"/>
                    </g>
                </g>
            </g>
        </g>
    </g>
</svg>
