<svg xmlns="http://www.w3.org/2000/svg" width="61" height="61" viewBox="0 0 61 61">
    <g fill="none" fill-rule="evenodd">
        <g fill-rule="nonzero">
            <g>
                <g>
                    <path fill="#006ADC" d="M37.077 0c-1.58 0-3.187.231-4.775.717-8.566 2.617-13.374 11.638-10.74 20.15 2.147 6.931 8.566 11.386 15.503 11.386 1.58 0 3.188-.231 4.775-.717 8.565-2.617 13.375-11.637 10.74-20.148C50.435 4.455 44.015 0 37.078 0" transform="translate(-555 -556) translate(540.5 538.168) translate(15 18)"/>
                    <g fill="#000638">
                        <path d="M50.727.005L50.625 0H3.375C1.516 0 0 1.516 0 3.375v33.413c0 1.858 1.516 3.375 3.375 3.375h47.25c1.859 0 3.375-1.517 3.375-3.375V3.375c0-1.73-1.477-3.207-3.273-3.37zM3.375 2.25h47.187l-.039-.005c.679.062 1.227.61 1.227 1.13v33.413c0 .616-.509 1.125-1.125 1.125H3.375c-.616 0-1.125-.51-1.125-1.125V3.375c0-.616.509-1.125 1.125-1.125z" transform="translate(-555 -556) translate(540.5 538.168) translate(15 18) translate(3.375 13.463)"/>
                        <path d="M13.387 17.663h-.112c-4.784 0-8.663 3.878-8.663 8.662v4.05c0 .621.504 1.125 1.125 1.125h15.188c.621 0 1.125-.504 1.125-1.125v-4.05c0-4.784-3.879-8.662-8.663-8.662zm0 2.25l.311.007c3.397.162 6.102 2.968 6.102 6.405l-.002 2.925H6.862l.002-2.925c0-3.437 2.704-6.243 6.101-6.405l.423-.008zM13.387 8.775c-2.298 0-4.162 1.864-4.162 4.162 0 2.3 1.864 4.163 4.162 4.163 2.3 0 4.163-1.864 4.163-4.163 0-2.298-1.864-4.162-4.163-4.162zm0 2.25c1.057 0 1.913.856 1.913 1.912 0 1.057-.856 1.913-1.913 1.913-1.056 0-1.912-.856-1.912-1.912 0-1.057.856-1.913 1.912-1.913z" transform="translate(-555 -556) translate(540.5 538.168) translate(15 18) translate(3.375 13.463)"/>
                        <g>
                            <path d="M20.438 0c.414 0 .75.336.75.75 0 .368-.266.674-.616.738l-.134.012H.75C.336 1.5 0 1.164 0 .75 0 .382.265.076.615.012L.75 0h19.688zM17.625 6.75c.414 0 .75.336.75.75 0 .368-.265.674-.615.738l-.135.012H.75C.336 8.25 0 7.914 0 7.5c0-.368.265-.674.615-.738L.75 6.75h16.875z" transform="translate(-555 -556) translate(540.5 538.168) translate(15 18) translate(3.375 13.463) translate(25.012 22.65)"/>
                        </g>
                    </g>
                </g>
            </g>
        </g>
    </g>
</svg>
