<svg xmlns="http://www.w3.org/2000/svg" xmlns:xlink="http://www.w3.org/1999/xlink" width="60" height="61" viewBox="0 0 60 61">
    <defs>
        <path id="y1jugj98aa" d="M0 0L50.824 0 50.824 52.736 0 52.736z"/>
    </defs>
    <g fill="none" fill-rule="evenodd">
        <g>
            <g>
                <g>
                    <path fill="#006ADC" fill-rule="nonzero" d="M37.077 0c-1.58 0-3.187.231-4.775.717-8.566 2.617-13.374 11.638-10.74 20.15 2.147 6.931 8.566 11.386 15.503 11.386 1.58 0 3.188-.231 4.775-.717 8.565-2.617 13.375-11.637 10.74-20.148C50.435 4.455 44.015 0 37.078 0" transform="translate(-167 -679) translate(152 661.252) translate(15 18)"/>
                    <g transform="translate(-167 -679) translate(152 661.252) translate(15 18) translate(4.185 6.012)">
                        <mask id="9xdpc4orab" fill="#fff">
                            <use xlink:href="#y1jugj98aa"/>
                        </mask>
                        <path fill="#000638" d="M11.544 51.283h23.214V1.438H11.544v49.845zm23.931 1.438h-24.65c-.397 0-.719-.322-.719-.72V.72c0-.397.322-.719.719-.719h24.65c.398 0 .72.322.72.719v51.283c0 .397-.322.719-.72.719z" mask="url(#9xdpc4orab)"/>
                        <path fill="#000638" d="M20.08 50.929h5.43v-8.721h-5.43v8.72zm6.292 1.725h-7.155c-.475 0-.862-.386-.862-.862V41.345c0-.477.387-.862.862-.862h7.155c.476 0 .86.385.86.862v10.447c0 .476-.384.862-.86.862zM26.598 35.467c.49 0 .884-.466.884-1.048v-4.888c0-.583-.393-1.048-.884-1.048-.49 0-.885.465-.885 1.048v4.888c-.05.582.394 1.048.885 1.048M19.707 35.467c.492 0 .885-.466.885-1.048v-4.888c0-.583-.393-1.048-.885-1.048-.49 0-.884.465-.884 1.048v4.888c-.05.582.393 1.048.884 1.048M26.598 25.511c.49 0 .884-.466.884-1.047v-4.889c0-.582-.393-1.047-.884-1.047-.49 0-.885.465-.885 1.047v4.889c-.05.581.394 1.047.885 1.047M19.707 25.511c.492 0 .885-.466.885-1.047v-4.889c0-.582-.393-1.047-.885-1.047-.49 0-.884.465-.884 1.047v4.889c-.05.581.393 1.047.884 1.047M26.598 14.781c.49 0 .884-.466.884-1.047V8.845c0-.582-.393-1.047-.884-1.047-.49 0-.885.465-.885 1.047v4.889c-.05.581.394 1.047.885 1.047M19.707 14.781c.492 0 .885-.466.885-1.047V8.845c0-.582-.393-1.047-.885-1.047-.49 0-.884.465-.884 1.047v4.889c-.05.581.393 1.047.884 1.047M41.295 26.504h-.873c-.583 0-1.048.467-1.048 1.048 0 .582.465 1.047 1.048 1.047h.873c.582 0 1.047-.465 1.047-1.047 0-.581-.465-1.048-1.047-1.048M41.295 20.626h-.873c-.583 0-1.048.467-1.048 1.048 0 .582.465 1.047 1.048 1.047h.873c.582 0 1.047-.465 1.047-1.047 0-.524-.465-1.048-1.047-1.048M41.295 32.266h-.873c-.583 0-1.048.466-1.048 1.047 0 .583.465 1.048 1.048 1.048h.873c.582 0 1.047-.465 1.047-1.048 0-.58-.465-1.047-1.047-1.047M1.438 51.283h8.668V29.261H1.438v22.022zm9.387 1.438H.719C.32 52.72 0 52.399 0 52V28.543c0-.398.32-.719.719-.719h10.106c.397 0 .719.321.719.719v23.46c0 .397-.322.719-.719.719z" mask="url(#9xdpc4orab)"/>
                        <path fill="#000638" d="M6.209 39.25h-.873c-.583 0-1.048.466-1.048 1.047 0 .583.465 1.048 1.048 1.048h.873c.582 0 1.047-.465 1.047-1.048 0-.581-.465-1.047-1.047-1.047M6.209 33.372h-.873c-.583 0-1.048.466-1.048 1.047 0 .583.465 1.048 1.048 1.048h.873c.582 0 1.047-.465 1.047-1.048 0-.524-.465-1.047-1.047-1.047M6.209 45.011h-.873c-.583 0-1.048.467-1.048 1.048 0 .582.465 1.049 1.048 1.049h.873c.582 0 1.047-.467 1.047-1.05 0-.58-.465-1.047-1.047-1.047M45.504 37.594c-1.924 0-2.975 3.081-3.81 5.968-.249.86-.107 1.653.423 2.356.72.957 2.082 1.6 3.387 1.6 1.246 0 2.523-.592 3.25-1.511.398-.501.817-1.337.55-2.481-.63-2.705-1.802-5.932-3.8-5.932m0 11.362c-1.761 0-3.543-.853-4.536-2.174-.791-1.053-1.024-2.338-.655-3.618.806-2.79 2.025-7.008 5.19-7.008 2.396 0 4.097 2.305 5.201 7.045.31 1.327.017 2.64-.824 3.7-1.006 1.267-2.683 2.055-4.376 2.055" mask="url(#9xdpc4orab)"/>
                        <path fill="#000638" d="M45.295 52.737h.395c.38 0 .69-.309.69-.69V45.01c0-.38-.31-.69-.69-.69h-.395c-.381 0-.69.31-.69.69v7.036c0 .381.309.69.69.69M45.91 34.498c-.396 0-.718-.322-.718-.719V17.66h-9.387c-.398 0-.72-.321-.72-.72 0-.396.322-.717.72-.717H45.91c.397 0 .72.32.72.718v16.84c0 .396-.323.718-.72.718M41.824 52.72h-6.348c-.397 0-.718-.322-.718-.719 0-.397.32-.719.718-.719h6.348c.397 0 .72.322.72.72 0 .396-.323.718-.72.718" mask="url(#9xdpc4orab)"/>
                    </g>
                </g>
            </g>
        </g>
    </g>
</svg>
