<svg xmlns="http://www.w3.org/2000/svg" width="60" height="61" viewBox="0 0 60 61">
    <g fill="none" fill-rule="evenodd">
        <g>
            <g>
                <g>
                    <path fill="#006ADC" fill-rule="nonzero" d="M37.077 0c-1.58 0-3.187.231-4.775.717-8.566 2.617-13.374 11.638-10.74 20.15 2.147 6.931 8.566 11.386 15.503 11.386 1.58 0 3.188-.231 4.775-.717 8.565-2.617 13.375-11.637 10.74-20.148C50.435 4.455 44.015 0 37.078 0" transform="translate(-167 -802) translate(152 784.336) translate(15 18)"/>
                    <g>
                        <g fill="#000638" fill-rule="nonzero">
                            <path d="M33.806.005L33.738 0H2.249C1.01 0 0 1.516 0 3.375v33.413c0 1.858 1.01 3.375 2.25 3.375h31.488c1.238 0 2.249-1.517 2.249-3.375V3.375c0-1.73-.984-3.207-2.181-3.37zM2.249 2.25h31.447l-.026-.005c.452.062.817.61.817 1.13v33.413c0 .616-.339 1.125-.75 1.125H2.25c-.41 0-.75-.51-.75-1.125V3.375c0-.616.34-1.125.75-1.125z" transform="translate(-167 -802) translate(152 784.336) translate(15 18) translate(12.007 13.463)"/>
                            <path d="M27.437 22.65c.414 0 .75.336.75.75 0 .368-.265.674-.615.738l-.135.012H7.749c-.414 0-.75-.336-.75-.75 0-.368.266-.674.616-.738l.134-.012h19.688zM27.437 7.926c.414 0 .75.336.75.75 0 .368-.265.674-.615.738l-.135.012H7.749c-.414 0-.75-.336-.75-.75 0-.368.266-.674.616-.738l.134-.012h19.688zM27.437 26.621c.414 0 .75.336.75.75 0 .369-.265.675-.615.738l-.135.012H7.749c-.414 0-.75-.335-.75-.75 0-.368.266-.674.616-.737l.134-.013h19.688zM27.437 31.121c.414 0 .75.336.75.75 0 .369-.265.675-.615.738l-.135.012H7.749c-.414 0-.75-.335-.75-.75 0-.368.266-.674.616-.737l.134-.013h19.688z" transform="translate(-167 -802) translate(152 784.336) translate(15 18) translate(12.007 13.463)"/>
                        </g>
                    </g>
                </g>
            </g>
        </g>
    </g>
</svg>
