<svg xmlns="http://www.w3.org/2000/svg" width="60" height="61" viewBox="0 0 60 61">
    <g fill="none" fill-rule="evenodd">
        <g fill-rule="nonzero">
            <g>
                <g>
                    <path fill="#006ADC" d="M37.077 0c-1.58 0-3.187.231-4.775.717-8.566 2.617-13.374 11.638-10.74 20.15 2.147 6.931 8.566 11.386 15.503 11.386 1.58 0 3.188-.231 4.775-.717 8.565-2.617 13.375-11.637 10.74-20.148C50.435 4.455 44.015 0 37.078 0" transform="translate(-943 -556) translate(928 538.168) translate(15 18)"/>
                    <g fill="#000638">
                        <path d="M8.38 2.31L6.84 0H2.486C1.113 0 0 1.113 0 2.485v10.78c0 1.372 1.113 2.485 2.485 2.485h12.32c1.372 0 2.485-1.113 2.485-2.485v-8.47l-.007-.185c-.095-1.286-1.168-2.3-2.478-2.3H8.38zm-5.895-.42h3.344l1.54 2.31h7.436c.329 0 .595.266.595.595v8.47c0 .329-.266.595-.595.595H2.485c-.329 0-.595-.266-.595-.595V2.485c0-.329.266-.595.595-.595z" transform="translate(-943 -556) translate(928 538.168) translate(15 18) translate(30 8.175)"/>
                    </g>
                    <path fill="#000638" d="M19.664 31.828h-.21c-8.398 0-15.207 6.809-15.207 15.206V54.6c0 .621.504 1.125 1.125 1.125h28.373c.621 0 1.125-.504 1.125-1.125v-7.566c0-8.397-6.809-15.206-15.206-15.206zm0 2.25l.388.006c6.975.205 12.568 5.925 12.568 12.95l-.001 6.44H6.497v-6.44c0-7.025 5.593-12.745 12.568-12.95l.599-.006zM19.664 15.225c-3.756 0-6.8 3.044-6.8 6.8 0 3.755 3.044 6.799 6.8 6.799 3.755 0 6.799-3.044 6.799-6.8 0-3.755-3.044-6.799-6.8-6.799zm0 2.25c2.512 0 4.549 2.037 4.549 4.55 0 2.512-2.037 4.549-4.55 4.549-2.512 0-4.549-2.037-4.549-4.55 0-2.512 2.037-4.549 4.55-4.549z" transform="translate(-943 -556) translate(928 538.168) translate(15 18)"/>
                </g>
            </g>
        </g>
    </g>
</svg>
