<svg xmlns="http://www.w3.org/2000/svg" xmlns:xlink="http://www.w3.org/1999/xlink" width="61" height="61" viewBox="0 0 61 61">
    <defs>
        <path id="tdp9xfcr2a" d="M0 0L38.406 0 38.406 32.483 0 32.483z"/>
    </defs>
    <g fill="none" fill-rule="evenodd">
        <g>
            <g>
                <g>
                    <path fill="#006ADC" fill-rule="nonzero" d="M37.077 0c-1.58 0-3.187.231-4.775.717-8.566 2.617-13.374 11.638-10.74 20.15 2.147 6.931 8.566 11.386 15.503 11.386 1.58 0 3.188-.231 4.775-.717 8.565-2.617 13.375-11.637 10.74-20.148C50.435 4.455 44.015 0 37.078 0" transform="translate(-555 -802) translate(540.5 784.336) translate(15 18)"/>
                    <g transform="translate(-555 -802) translate(540.5 784.336) translate(15 18) translate(6.786 21.423)">
                        <mask id="euv0m1kj4b" fill="#fff">
                            <use xlink:href="#tdp9xfcr2a"/>
                        </mask>
                        <path fill="#000638" d="M19.203 1.795c-3.22-.024-6.402.665-9.319 2.018C4.8 6.223 1.797 10.34 1.797 14.822c0 3.786 2.203 7.374 6.03 9.821l.692.447-.387.723c-.918 1.704-2.088 3.262-3.467 4.625 2.227-.394 4.959-1.375 5.758-3.42l.315-.822.827.304c2.449.881 5.033 1.328 7.638 1.322 5.868 0 11.304-2.206 14.548-5.893 1.802-1.952 2.819-4.495 2.857-7.143.01-7.143-7.808-12.991-17.405-12.991M2.3 32.481c-.3.007-.601-.012-.898-.052-.9-.152-1.026-.742-1.034-.982 0-.84.898-1.044 1.194-1.108 1.717-.392 3.64-3.035 4.601-4.625C2.228 22.902 0 18.982 0 14.822 0 9.626 3.424 4.911 9.147 2.197 12.294.733 15.728-.017 19.203 0c10.585 0 19.203 6.644 19.203 14.822-.033 3.087-1.212 6.052-3.307 8.33-3.595 4.072-9.516 6.5-15.896 6.5-2.555.012-5.093-.384-7.521-1.17-1.905 3.25-7.054 4-9.381 4" mask="url(#euv0m1kj4b)"/>
                    </g>
                    <path fill="#000638" d="M25.998 21.433c10.584 0 19.203 6.642 19.203 14.822-.002 1.823-.423 3.62-1.232 5.258 3.73-2.517 5.949-6.142 5.949-10 0-7.348-7.89-13.32-17.585-13.32-4.528-.063-8.95 1.36-12.58 4.044 2.035-.535 4.13-.806 6.235-.804h.01zm11.95 24.91l2.598-2.937c1.801-1.953 2.818-4.494 2.857-7.143 0-7.142-7.808-13.035-17.405-13.035-3.222-.03-6.408.658-9.329 2.008l-3.233 1.555 2.164-2.894c3.46-4.625 9.886-7.49 16.74-7.49 10.687 0 19.374 6.776 19.374 15.106 0 5.554-3.89 10.652-10.144 13.295l-3.621 1.535zM17.749 35.156c.992 0 1.797.8 1.797 1.785 0 .987-.805 1.786-1.797 1.786-.993 0-1.798-.799-1.798-1.786 0-.986.805-1.785 1.798-1.785" transform="translate(-555 -802) translate(540.5 784.336) translate(15 18)"/>
                    <path fill="#000638" d="M26.294 35.156c.992 0 1.797.8 1.797 1.785 0 .987-.805 1.786-1.797 1.786-.993 0-1.798-.799-1.798-1.786 0-.986.805-1.785 1.798-1.785M34.228 35.156c.992 0 1.798.8 1.798 1.785 0 .987-.806 1.786-1.798 1.786s-1.797-.799-1.797-1.786c0-.986.805-1.785 1.797-1.785" transform="translate(-555 -802) translate(540.5 784.336) translate(15 18)"/>
                </g>
            </g>
        </g>
    </g>
</svg>
