<svg width="133" height="50" viewBox="0 0 133 50" fill="none" xmlns="http://www.w3.org/2000/svg">
<path d="M12.9917 12.6891C16.6474 6.42228 24.3258 3.75458 31.0796 6.40484C37.8331 9.05521 41.6478 16.2322 40.066 23.3127C39.7307 24.7431 39.19 26.1182 38.4616 27.3942C35.1966 33.1034 28.6012 35.8728 22.3592 34.4076C22.7418 33.0595 22.8299 31.6178 22.5801 30.1791C21.9185 26.3669 19.0173 23.3333 15.2382 22.5032C13.8669 22.202 12.4993 22.2161 11.2089 22.4919C10.901 20.6309 10.9461 18.6854 11.3991 16.7504C11.7216 15.324 12.2587 13.9546 12.9917 12.6891ZM3.92855 29.592C4.80986 25.9074 7.72665 23.2361 11.2089 22.4919C12.0313 27.4634 15.3879 31.8311 20.3286 33.7742C20.9979 34.0375 21.6766 34.2474 22.3592 34.4076C21.7279 36.6315 20.2955 38.601 18.2544 39.8804C14.9761 41.9355 10.7795 41.8033 7.63668 39.5463C4.4941 37.2893 3.02868 33.3551 3.92855 29.592Z" fill="white"/>
<path d="M49.6255 12.504H52.7003C54.7494 12.504 56.0009 13.555 56.0009 15.2855C56.0009 17.016 54.7494 18.0543 52.7003 18.0543H51.5153V21.8202H49.6255V12.504ZM51.5153 14.0741V16.4831H52.7794C53.5782 16.4831 54.0572 16.0178 54.0572 15.2591C54.0572 14.5532 53.5782 14.0741 52.7794 14.0741H51.5153Z" fill="white"/>
<path d="M57.3315 11.8382H59.0219V21.8202H57.3315V11.8382Z" fill="white"/>
<path d="M60.672 20.0095C60.672 18.9976 61.457 18.2389 62.8942 17.9994L64.9433 17.6533V17.4803C64.9433 16.7754 64.4105 16.3227 63.6391 16.3227C62.987 16.3227 62.4816 16.6287 62.1218 17.1215L60.884 16.1761C61.4834 15.3509 62.4679 14.8455 63.6919 14.8455C65.6355 14.8455 66.6337 16.003 66.6337 17.4803V21.8192H64.9433V21.1671C64.517 21.6862 63.7193 22.0186 62.9332 22.0186C61.5889 22.0186 60.6709 21.2462 60.6709 20.0095H60.672ZM63.2804 20.6753C64.0527 20.6753 64.6109 20.3155 64.9444 19.7837V18.8383L63.3468 19.1042C62.642 19.2234 62.3486 19.5168 62.3486 19.9293C62.3486 20.382 62.7084 20.6743 63.2804 20.6743V20.6753Z" fill="white"/>
<path d="M68.9902 16.6298H67.7388V15.1124H68.9902V13.4358H70.6933V15.1124H72.7424V16.6298H70.6933V19.3711C70.6933 20.1161 71.0921 20.4094 71.758 20.4094C72.2243 20.4094 72.5303 20.3567 72.7561 20.2628V21.74C72.4238 21.8867 72.0239 21.9532 71.4657 21.9532C69.789 21.9532 68.9902 21.0077 68.9902 19.3711V16.6298Z" fill="white"/>
<path d="M77.3744 22.0861C74.9918 22.0861 73.6475 20.4221 73.6475 18.4658C73.6475 16.5095 74.8989 14.8455 77.0947 14.8455C78.9582 14.8455 80.1822 16.1096 80.1822 17.8665C80.1822 18.2389 80.1294 18.585 80.0756 18.8119H75.378C75.5373 20.0633 76.3097 20.5688 77.3606 20.5688C78.0929 20.5688 78.7313 20.249 79.0911 19.77L80.3025 20.7281C79.6768 21.567 78.6385 22.0861 77.3744 22.0861ZM75.4307 17.5879H78.5182C78.4918 16.9094 77.999 16.2299 77.0546 16.2299C76.1894 16.2299 75.6175 16.7089 75.4307 17.5879Z" fill="white"/>
<path d="M82.2592 15.1124V14.4076C82.2592 12.9831 83.2046 11.8393 84.8813 11.8393C85.4933 11.8393 86.0124 11.9859 86.4387 12.2117L85.7202 13.6225C85.5207 13.4758 85.2538 13.3566 84.9087 13.3566C84.3368 13.3566 83.9633 13.7555 83.9633 14.3685V15.1135H86.0124V16.6308H83.9633V21.8213H82.2602V16.6308H81.0088V15.1135H82.2602L82.2592 15.1124Z" fill="white"/>
<path d="M93.7846 18.4658C93.7846 20.4759 92.2937 22.0861 90.1116 22.0861C87.9295 22.0861 86.4385 20.4759 86.4385 18.4658C86.4385 16.4557 87.9295 14.8455 90.1116 14.8455C92.2937 14.8455 93.7846 16.4557 93.7846 18.4658ZM92.0278 18.4658C92.0278 17.2945 91.2163 16.443 90.1379 16.443C89.0595 16.443 88.1943 17.2945 88.1943 18.4658C88.1943 19.637 89.0195 20.4886 90.1379 20.4886C91.2564 20.4886 92.0278 19.6233 92.0278 18.4658Z" fill="white"/>
<path d="M95.3286 15.1124H97.019V15.7782C97.458 15.3256 98.0309 14.9795 98.7886 14.9795C99.0144 14.9795 99.2148 15.0196 99.3742 15.0723V16.7364C99.161 16.6836 98.9352 16.6435 98.6292 16.6435C97.8041 16.6435 97.2712 17.0962 97.019 17.5214V21.8202H95.3286V15.1124Z" fill="white"/>
<path d="M100.732 15.1124H102.422V15.6179C102.875 15.1789 103.447 14.8455 104.272 14.8455C105.097 14.8455 105.87 15.218 106.309 15.9365C106.788 15.3509 107.426 14.8455 108.558 14.8455C109.943 14.8455 111.034 15.8036 111.034 17.6934V21.8192H109.331V17.7599C109.331 16.9484 108.892 16.442 108.133 16.442C107.374 16.442 107.002 16.9474 106.736 17.4001C106.75 17.4929 106.75 17.5868 106.75 17.6923V21.8181H105.047V17.7588C105.047 16.9474 104.608 16.4409 103.849 16.4409C103.09 16.4409 102.678 17.0128 102.424 17.4391V21.8181H100.734V15.1103L100.732 15.1124Z" fill="white"/>
<path d="M116.21 22.0861C113.828 22.0861 112.483 20.4221 112.483 18.4658C112.483 16.5095 113.735 14.8455 115.931 14.8455C117.794 14.8455 119.018 16.1096 119.018 17.8665C119.018 18.2389 118.965 18.585 118.912 18.8119H114.214C114.373 20.0633 115.146 20.5688 116.197 20.5688C116.929 20.5688 117.567 20.249 117.927 19.77L119.138 20.7281C118.513 21.567 117.474 22.0861 116.21 22.0861ZM114.267 17.5879H117.354C117.328 16.9094 116.835 16.2299 115.891 16.2299C115.025 16.2299 114.453 16.7089 114.267 17.5879Z" fill="white"/>
<path d="M52.1948 30.8167C53.1001 30.8167 53.7522 31.0963 54.2714 31.6154V27.8094H55.9744V37.7914H54.2714V37.2596C53.7522 37.7787 53.1001 38.0584 52.1948 38.0584C50.0791 38.0584 48.7876 36.3943 48.7876 34.438C48.7876 32.4817 50.0781 30.8177 52.1948 30.8177V30.8167ZM52.4343 36.4598C53.193 36.4598 53.8187 36.14 54.2714 35.528V33.3459C53.8187 32.7339 53.193 32.4142 52.4343 32.4142C51.2894 32.4142 50.5582 33.2657 50.5582 34.437C50.5582 35.6082 51.2905 36.4598 52.4343 36.4598Z" fill="white"/>
<path d="M61.244 38.0573C58.8614 38.0573 57.5171 36.3933 57.5171 34.437C57.5171 32.4807 58.7685 30.8167 60.9644 30.8167C62.8278 30.8167 64.0518 32.0808 64.0518 33.8376C64.0518 34.2101 63.9991 34.5562 63.9452 34.7831H59.2476C59.4069 36.0345 60.1793 36.54 61.2303 36.54C61.9626 36.54 62.6009 36.2202 62.9608 35.7412L64.1721 36.6993C63.5464 37.5382 62.5081 38.0573 61.244 38.0573ZM59.3014 33.5591H62.3889C62.3625 32.8806 61.8697 32.2011 60.9253 32.2011C60.0601 32.2011 59.4882 32.6801 59.3014 33.5591Z" fill="white"/>
<path d="M69.2959 27.8094H70.9863V37.7914H69.2959V27.8094Z" fill="white"/>
<path d="M72.3433 32.3076L73.5409 28.4742H75.4571L73.9134 32.3076H72.3433Z" fill="white"/>
<path d="M76.562 28.8076C76.562 28.2083 77.0674 27.7028 77.6668 27.7028C78.2661 27.7028 78.7578 28.2083 78.7578 28.8076C78.7578 29.407 78.2651 29.9124 77.6668 29.9124C77.0685 29.9124 76.562 29.407 76.562 28.8076ZM76.8153 31.0836H78.5057V37.7914H76.8153V31.0836Z" fill="white"/>
<path d="M80.5283 31.0836H82.2187V31.6154C82.684 31.1628 83.3098 30.8167 84.2014 30.8167C85.6523 30.8167 86.8098 31.8149 86.8098 33.7975V37.7904H85.1067V33.864C85.1067 32.9724 84.6013 32.4132 83.7762 32.4132C82.951 32.4132 82.472 32.9851 82.2187 33.4114V37.7904H80.5283V31.0826V31.0836Z" fill="white"/>
<path d="M93.4649 35.6884L94.7828 36.7004C94.1571 37.5255 93.1726 38.0584 91.9475 38.0584C89.6314 38.0584 88.248 36.3944 88.248 34.4381C88.248 32.4818 89.6324 30.8177 91.9475 30.8177C93.1715 30.8177 94.1571 31.3495 94.7828 32.1757L93.4649 33.1877C93.1451 32.7213 92.6133 32.4153 91.9211 32.4153C90.8164 32.4153 90.0049 33.2668 90.0049 34.4381C90.0049 35.6093 90.8164 36.4608 91.9486 36.4608C92.6144 36.4608 93.1462 36.1548 93.4659 35.6884H93.4649Z" fill="white"/>
<path d="M96.0469 27.8094H97.7373V37.7914H96.0469V27.8094Z" fill="white"/>
<path d="M104.178 31.0836H105.881V34.8105C105.881 36.8206 104.71 38.0584 102.74 38.0584C100.77 38.0584 99.6123 36.8206 99.6123 34.8105V31.0836H101.315V34.8897C101.315 35.8615 101.821 36.4598 102.753 36.4598C103.684 36.4598 104.177 35.8604 104.177 34.8897V31.0836H104.178Z" fill="white"/>
<path d="M108.238 35.8077C108.65 36.3268 109.143 36.6993 109.781 36.6993C110.327 36.6993 110.607 36.3796 110.607 35.9807C110.607 34.8095 107.399 35.2484 107.399 32.8933C107.399 31.7083 108.397 30.8167 109.794 30.8167C110.819 30.8167 111.75 31.3094 112.229 31.9615L111.112 32.946C110.766 32.5197 110.327 32.1736 109.808 32.1736C109.289 32.1736 109.023 32.4659 109.023 32.812C109.023 33.9569 112.23 33.557 112.23 35.8731C112.204 37.2839 111.073 38.0552 109.808 38.0552C108.61 38.0552 107.759 37.5761 107.119 36.8175L108.237 35.8056L108.238 35.8077Z" fill="white"/>
<path d="M113.535 28.8076C113.535 28.2083 114.04 27.7028 114.639 27.7028C115.239 27.7028 115.73 28.2083 115.73 28.8076C115.73 29.407 115.238 29.9124 114.639 29.9124C114.041 29.9124 113.535 29.407 113.535 28.8076ZM113.788 31.0836H115.478V37.7914H113.788V31.0836Z" fill="white"/>
<path d="M124.368 34.437C124.368 36.446 122.877 38.0573 120.695 38.0573C118.513 38.0573 117.022 36.4471 117.022 34.437C117.022 32.4269 118.513 30.8167 120.695 30.8167C122.877 30.8167 124.368 32.4269 124.368 34.437ZM122.611 34.437C122.611 33.2657 121.8 32.4142 120.721 32.4142C119.643 32.4142 118.778 33.2657 118.778 34.437C118.778 35.6082 119.603 36.4598 120.721 36.4598C121.84 36.4598 122.611 35.5945 122.611 34.437Z" fill="white"/>
<path d="M125.912 31.0836H127.602V31.6154C128.067 31.1628 128.693 30.8167 129.585 30.8167C131.036 30.8167 132.193 31.8149 132.193 33.7975V37.7904H130.49V33.864C130.49 32.9724 129.985 32.4132 129.159 32.4132C128.334 32.4132 127.855 32.9851 127.602 33.4114V37.7904H125.912V31.0826V31.0836Z" fill="white"/>
</svg>
