<svg width="40" height="40" viewBox="0 0 40 40" fill="none" xmlns="http://www.w3.org/2000/svg">
<rect width="40" height="40" rx="6" fill="white"/>
<path d="M18.6798 19.832C18.3673 19.8315 18.0566 19.8785 17.7582 19.9712C16.2661 20.4224 15.3311 21.9001 15.5623 23.4417C15.7936 24.9832 17.121 26.1216 18.6798 26.1152C18.9937 26.1136 19.3057 26.0667 19.6062 25.976C21.0852 25.5123 22.0057 24.0399 21.7746 22.5072C21.5435 20.9745 20.2298 19.8389 18.6798 19.832Z" fill="#FFEFD2"/>
<path d="M17.816 21.1856C18.1109 22.1147 17.8146 23.1298 17.0662 23.7544C16.3179 24.3789 15.2661 24.4888 14.4048 24.0324C13.5434 23.576 13.0437 22.644 13.1403 21.6741C13.2368 20.7041 13.9104 19.8889 14.8448 19.6112C16.0987 19.2385 17.4202 19.9387 17.816 21.1856Z" fill="#FFAD1D"/>
<path d="M24.6128 28.712C24.9948 29.9531 24.2986 31.269 23.0576 31.6515C21.8166 32.034 20.5004 31.3384 20.1174 30.0975C19.7345 28.8566 20.4296 27.5402 21.6704 27.1568C22.2668 26.9724 22.912 27.0328 23.4639 27.3245C24.0158 27.6162 24.4291 28.1153 24.6128 28.712Z" fill="#FFAD1D"/>
<path d="M10.0734 25.2368C9.91078 25.2371 9.74904 25.2613 9.59345 25.3088C8.7823 25.5588 8.30101 26.3919 8.48953 27.2195C8.67805 28.0471 9.47264 28.5895 10.3121 28.4636C11.1515 28.3377 11.752 27.586 11.6894 26.7395C11.6268 25.893 10.9223 25.2378 10.0734 25.2368" fill="#FFAD1D"/>
<path d="M25.0593 22.3328C24.9404 22.3315 24.8221 22.3493 24.7089 22.3856C24.1413 22.5597 23.7864 23.1228 23.8741 23.7099C23.9618 24.2971 24.4656 24.732 25.0593 24.7328C25.1796 24.7317 25.2991 24.7139 25.4145 24.68C25.983 24.5055 26.3379 23.9411 26.249 23.3532C26.16 22.7653 25.6539 22.3312 25.0593 22.3328Z" fill="#FFEFD2"/>
<path d="M12.1662 13.0352C11.8992 13.0351 11.6338 13.0755 11.379 13.1552C10.0453 13.5692 9.25626 14.9414 9.56939 16.3024C9.88252 17.6633 11.1919 18.5527 12.5724 18.3423C13.953 18.1318 14.9378 16.8927 14.8313 15.5003C14.7247 14.1078 13.5626 13.033 12.1662 13.0352Z" fill="#FFEFD2"/>
<path d="M22.8797 8.37915C22.3815 8.37925 21.8862 8.45533 21.4109 8.60475C19.0652 9.33503 17.6007 11.6649 17.9597 14.0953C18.3187 16.5257 20.3942 18.3326 22.8509 18.3536C23.3487 18.3528 23.8437 18.2783 24.3197 18.1328C26.6734 17.4082 28.1459 15.0741 27.7862 12.6379C27.4265 10.2016 25.3424 8.39262 22.8797 8.37915" fill="#FFEFD2"/>
<path d="M27.7425 11.1872C26.6775 11.1876 25.7885 12.0001 25.6926 13.0608C25.5966 14.1215 26.3253 15.0804 27.3729 15.272C27.4964 15.2951 27.6217 15.3063 27.7473 15.3056C28.8123 15.3051 29.7013 14.4926 29.7973 13.4319C29.8932 12.3712 29.1646 11.4124 28.1169 11.2208C27.9935 11.1977 27.8681 11.1864 27.7425 11.1872Z" fill="#FFAD1D"/>
</svg>
